<mxfile host="app.diagrams.net" modified="2021-06-28T08:31:51.293Z" agent="5.0 (Windows NT 10.0; Win64; x64) AppleWebKit/537.36 (KHTML, like Gecko) Chrome/91.0.4472.114 Safari/537.36 Edg/91.0.864.59" etag="gDD-2BIkvl0XdYs6UyK9" version="14.8.1" type="github">
  <diagram id="kbLHIRVZppjz3Ni60DpI" name="Page-1">
    <mxGraphModel dx="1483" dy="781" grid="1" gridSize="10" guides="1" tooltips="1" connect="1" arrows="1" fold="1" page="1" pageScale="1" pageWidth="850" pageHeight="1100" math="0" shadow="0">
      <root>
        <mxCell id="0" />
        <mxCell id="1" parent="0" />
        <mxCell id="L7ManvlE23HxFO0zl6Ld-1" value="Requester" style="swimlane;fontStyle=0;childLayout=stackLayout;horizontal=1;startSize=26;fillColor=none;horizontalStack=0;resizeParent=1;resizeParentMax=0;resizeLast=0;collapsible=1;marginBottom=0;" vertex="1" parent="1">
          <mxGeometry x="60" y="70" width="210" height="110" as="geometry" />
        </mxCell>
        <mxCell id="L7ManvlE23HxFO0zl6Ld-2" value="Book for an existing Vehicle" style="text;strokeColor=none;fillColor=none;align=left;verticalAlign=top;spacingLeft=4;spacingRight=4;overflow=hidden;rotatable=0;points=[[0,0.5],[1,0.5]];portConstraint=eastwest;" vertex="1" parent="L7ManvlE23HxFO0zl6Ld-1">
          <mxGeometry y="26" width="210" height="26" as="geometry" />
        </mxCell>
        <mxCell id="L7ManvlE23HxFO0zl6Ld-3" value="Book for available Vehicle&#xa;&#xa;Want take personal car" style="text;strokeColor=none;fillColor=none;align=left;verticalAlign=top;spacingLeft=4;spacingRight=4;overflow=hidden;rotatable=0;points=[[0,0.5],[1,0.5]];portConstraint=eastwest;" vertex="1" parent="L7ManvlE23HxFO0zl6Ld-1">
          <mxGeometry y="52" width="210" height="58" as="geometry" />
        </mxCell>
        <mxCell id="L7ManvlE23HxFO0zl6Ld-5" value="Authorizer" style="swimlane;fontStyle=0;childLayout=stackLayout;horizontal=1;startSize=26;fillColor=none;horizontalStack=0;resizeParent=1;resizeParentMax=0;resizeLast=0;collapsible=1;marginBottom=0;" vertex="1" parent="1">
          <mxGeometry x="595" y="57" width="210" height="104" as="geometry" />
        </mxCell>
        <mxCell id="L7ManvlE23HxFO0zl6Ld-6" value="Worasit" style="text;strokeColor=none;fillColor=none;align=left;verticalAlign=top;spacingLeft=4;spacingRight=4;overflow=hidden;rotatable=0;points=[[0,0.5],[1,0.5]];portConstraint=eastwest;" vertex="1" parent="L7ManvlE23HxFO0zl6Ld-5">
          <mxGeometry y="26" width="210" height="26" as="geometry" />
        </mxCell>
        <mxCell id="L7ManvlE23HxFO0zl6Ld-7" value="Phonexay" style="text;strokeColor=none;fillColor=none;align=left;verticalAlign=top;spacingLeft=4;spacingRight=4;overflow=hidden;rotatable=0;points=[[0,0.5],[1,0.5]];portConstraint=eastwest;" vertex="1" parent="L7ManvlE23HxFO0zl6Ld-5">
          <mxGeometry y="52" width="210" height="26" as="geometry" />
        </mxCell>
        <mxCell id="L7ManvlE23HxFO0zl6Ld-8" value="Phetdavong" style="text;strokeColor=none;fillColor=none;align=left;verticalAlign=top;spacingLeft=4;spacingRight=4;overflow=hidden;rotatable=0;points=[[0,0.5],[1,0.5]];portConstraint=eastwest;" vertex="1" parent="L7ManvlE23HxFO0zl6Ld-5">
          <mxGeometry y="78" width="210" height="26" as="geometry" />
        </mxCell>
        <mxCell id="L7ManvlE23HxFO0zl6Ld-9" value="Requester need to response (OLD)" style="swimlane;" vertex="1" parent="1">
          <mxGeometry x="50" y="323" width="265" height="286" as="geometry" />
        </mxCell>
        <mxCell id="L7ManvlE23HxFO0zl6Ld-10" value="&lt;div style=&quot;text-align: left&quot;&gt;&lt;span&gt;1. Date&amp;nbsp;&lt;/span&gt;&lt;/div&gt;&lt;div style=&quot;text-align: left&quot;&gt;&lt;span&gt;2. Requester name&lt;/span&gt;&lt;/div&gt;&lt;div style=&quot;text-align: left&quot;&gt;&lt;span&gt;3. Time depart&lt;/span&gt;&lt;/div&gt;&lt;div style=&quot;text-align: left&quot;&gt;&lt;span&gt;4. Time arrival&lt;/span&gt;&lt;/div&gt;&lt;div style=&quot;text-align: left&quot;&gt;&lt;span&gt;5. Inform HOD to acknowledge&lt;/span&gt;&lt;/div&gt;&lt;div style=&quot;text-align: left&quot;&gt;&lt;span&gt;- (HOD signing)&lt;/span&gt;&lt;/div&gt;&lt;div style=&quot;text-align: left&quot;&gt;&lt;span&gt;6. The requester sign off when&lt;/span&gt;&lt;/div&gt;&lt;div style=&quot;text-align: left&quot;&gt;&lt;span&gt;coming back and give the key&lt;/span&gt;&lt;/div&gt;&lt;div style=&quot;text-align: left&quot;&gt;&lt;span&gt;7. Check Car Plate (to verifying&amp;nbsp;&lt;/span&gt;&lt;/div&gt;&lt;div style=&quot;text-align: left&quot;&gt;&lt;span&gt;which car they taken&lt;/span&gt;&lt;span&gt;)&lt;/span&gt;&lt;/div&gt;&lt;div style=&quot;text-align: left&quot;&gt;&lt;span&gt;8. Number of person (how many people in car&lt;/span&gt;&lt;/div&gt;&lt;div style=&quot;text-align: left&quot;&gt;&lt;span&gt;)&lt;/span&gt;&lt;/div&gt;&lt;div style=&quot;text-align: left&quot;&gt;&lt;span&gt;9. Destination name&lt;/span&gt;&lt;/div&gt;" style="text;html=1;align=center;verticalAlign=middle;resizable=0;points=[];autosize=1;strokeColor=none;" vertex="1" parent="L7ManvlE23HxFO0zl6Ld-9">
          <mxGeometry y="46" width="260" height="180" as="geometry" />
        </mxCell>
        <mxCell id="L7ManvlE23HxFO0zl6Ld-11" value="Vehicle Record" style="swimlane;fontStyle=0;childLayout=stackLayout;horizontal=1;startSize=26;fillColor=none;horizontalStack=0;resizeParent=1;resizeParentMax=0;resizeLast=0;collapsible=1;marginBottom=0;" vertex="1" parent="1">
          <mxGeometry x="340" y="70" width="140" height="78" as="geometry" />
        </mxCell>
        <mxCell id="L7ManvlE23HxFO0zl6Ld-12" value="Plate" style="text;strokeColor=none;fillColor=none;align=left;verticalAlign=top;spacingLeft=4;spacingRight=4;overflow=hidden;rotatable=0;points=[[0,0.5],[1,0.5]];portConstraint=eastwest;" vertex="1" parent="L7ManvlE23HxFO0zl6Ld-11">
          <mxGeometry y="26" width="140" height="26" as="geometry" />
        </mxCell>
        <mxCell id="L7ManvlE23HxFO0zl6Ld-13" value="Name of vehicle&#xa;" style="text;strokeColor=none;fillColor=none;align=left;verticalAlign=top;spacingLeft=4;spacingRight=4;overflow=hidden;rotatable=0;points=[[0,0.5],[1,0.5]];portConstraint=eastwest;" vertex="1" parent="L7ManvlE23HxFO0zl6Ld-11">
          <mxGeometry y="52" width="140" height="26" as="geometry" />
        </mxCell>
        <mxCell id="L7ManvlE23HxFO0zl6Ld-15" value="Requester need to response (New)" style="swimlane;" vertex="1" parent="1">
          <mxGeometry x="490" y="310" width="325" height="330" as="geometry" />
        </mxCell>
        <mxCell id="L7ManvlE23HxFO0zl6Ld-16" value="&lt;div style=&quot;text-align: left&quot;&gt;&lt;span&gt;1. Date&amp;nbsp;&lt;/span&gt;&lt;/div&gt;&lt;div style=&quot;text-align: left&quot;&gt;&lt;span&gt;2. Requester name&lt;/span&gt;&lt;/div&gt;&lt;div style=&quot;text-align: left&quot;&gt;&lt;span&gt;2.1 Vehicle name&lt;/span&gt;&lt;/div&gt;&lt;div style=&quot;text-align: left&quot;&gt;&lt;span&gt;3. Time depart&lt;/span&gt;&lt;/div&gt;&lt;div style=&quot;text-align: left&quot;&gt;&lt;span&gt;4. Time arrival&lt;/span&gt;&lt;/div&gt;&lt;div style=&quot;text-align: left&quot;&gt;&lt;span&gt;5. Inform HOD to acknowledge&lt;/span&gt;&lt;span&gt;- Email inform&lt;/span&gt;&lt;/div&gt;&lt;div style=&quot;text-align: left&quot;&gt;&lt;span&gt;6. Authorizer or Admin confirms the return.&lt;/span&gt;&lt;/div&gt;&lt;div style=&quot;text-align: left&quot;&gt;6.1 Authorizer needs to check the key return or not?&lt;/div&gt;&lt;div style=&quot;text-align: left&quot;&gt;6.1.1 if yes,&amp;nbsp;&lt;/div&gt;&lt;div style=&quot;text-align: left&quot;&gt;&lt;span&gt;- Email to HOD and the requester success on the&amp;nbsp;&lt;/span&gt;&lt;/div&gt;&lt;div style=&quot;text-align: left&quot;&gt;&lt;span&gt;returning the vehicle.&lt;/span&gt;&lt;/div&gt;&lt;div style=&quot;text-align: left&quot;&gt;&lt;span&gt;-6.1.2 if Not,&lt;/span&gt;&lt;/div&gt;&lt;div style=&quot;text-align: left&quot;&gt;&lt;span&gt;- Email to HOD and the requester failed and remind&amp;nbsp;&lt;/span&gt;&lt;/div&gt;&lt;div style=&quot;text-align: left&quot;&gt;&lt;span&gt;them to return the key.&lt;/span&gt;&lt;/div&gt;&lt;div style=&quot;text-align: left&quot;&gt;&lt;span&gt;8. Number of people (how many people in a car&lt;/span&gt;&lt;span&gt;)&lt;/span&gt;&lt;/div&gt;&lt;div style=&quot;text-align: left&quot;&gt;&lt;span&gt;9. Destination name&lt;/span&gt;&lt;/div&gt;&lt;div style=&quot;text-align: left&quot;&gt;&lt;br&gt;&lt;/div&gt;" style="text;html=1;align=center;verticalAlign=middle;resizable=0;points=[];autosize=1;strokeColor=none;" vertex="1" parent="L7ManvlE23HxFO0zl6Ld-15">
          <mxGeometry x="17.5" y="55" width="290" height="240" as="geometry" />
        </mxCell>
        <mxCell id="L7ManvlE23HxFO0zl6Ld-17" value="" style="shape=singleArrow;whiteSpace=wrap;html=1;" vertex="1" parent="1">
          <mxGeometry x="350" y="430" width="100" height="60" as="geometry" />
        </mxCell>
        <mxCell id="L7ManvlE23HxFO0zl6Ld-23" value="Requester need to response (Personal car)" style="swimlane;" vertex="1" parent="1">
          <mxGeometry x="480" y="680" width="325" height="210" as="geometry" />
        </mxCell>
        <mxCell id="L7ManvlE23HxFO0zl6Ld-24" value="&lt;div style=&quot;text-align: left&quot;&gt;&lt;span&gt;1. Date&amp;nbsp;&lt;/span&gt;&lt;/div&gt;&lt;div style=&quot;text-align: left&quot;&gt;&lt;span&gt;2. Requester name&lt;/span&gt;&lt;/div&gt;&lt;div style=&quot;text-align: left&quot;&gt;&lt;span&gt;2.1 Vehicle name&lt;/span&gt;&lt;/div&gt;&lt;div style=&quot;text-align: left&quot;&gt;&lt;span&gt;3. Time depart&lt;/span&gt;&lt;/div&gt;&lt;div style=&quot;text-align: left&quot;&gt;&lt;span&gt;4. Time arrival&lt;/span&gt;&lt;/div&gt;&lt;div style=&quot;text-align: left&quot;&gt;&lt;span&gt;5. Destination name&lt;/span&gt;&lt;/div&gt;&lt;div style=&quot;text-align: left&quot;&gt;&lt;span&gt;6.Reason (why personal car)&lt;/span&gt;&lt;/div&gt;&lt;div style=&quot;text-align: left&quot;&gt;&lt;div&gt;7. Inform HOD to acknowledge&amp;nbsp;- Email inform&lt;/div&gt;&lt;div&gt;7.1 HOD need to approval by Email&lt;/div&gt;&lt;/div&gt;" style="text;html=1;align=center;verticalAlign=middle;resizable=0;points=[];autosize=1;strokeColor=none;" vertex="1" parent="L7ManvlE23HxFO0zl6Ld-23">
          <mxGeometry x="27.5" y="50" width="260" height="130" as="geometry" />
        </mxCell>
      </root>
    </mxGraphModel>
  </diagram>
</mxfile>
